<svg width="35" height="35" viewBox="0 0 35 35" fill="none" xmlns="http://www.w3.org/2000/svg">
<path d="M22.4959 9.21387H12.3079C10.6818 9.21387 9.35877 10.5369 9.35877 12.163V22.351C9.35877 23.9771 10.6818 25.3005 12.3079 25.3005H22.4959C24.122 25.3005 25.4454 23.9775 25.4454 22.351V12.163C25.4454 10.5369 24.1224 9.21387 22.4959 9.21387ZM17.4019 22.5528C14.4821 22.5528 12.1065 20.1772 12.1065 17.257C12.1065 14.3372 14.4821 11.9616 17.4019 11.9616C20.3221 11.9616 22.6977 14.3372 22.6977 17.257C22.6977 20.1768 20.3217 22.5528 17.4019 22.5528ZM22.868 13.0564C22.1768 13.0564 21.6147 12.4943 21.6147 11.8035C21.6147 11.1127 22.1768 10.5506 22.868 10.5506C23.5588 10.5506 24.1209 11.1127 24.1209 11.8035C24.1209 12.4943 23.5588 13.0564 22.868 13.0564Z" fill="#B8B8B8"/>
<path d="M17.4017 14.1997C15.7162 14.1997 14.3437 15.5715 14.3437 17.257C14.3437 18.9433 15.7162 20.3155 17.4017 20.3155C19.088 20.3155 20.4594 18.9433 20.4594 17.257C20.4594 15.5718 19.0877 14.1997 17.4017 14.1997Z" fill="#B8B8B8"/>
<path d="M17.4018 0.119629C7.96291 0.119629 0.310501 7.77203 0.310501 17.2109C0.310501 26.6498 7.96291 34.3022 17.4018 34.3022C26.8407 34.3022 34.4931 26.6498 34.4931 17.2109C34.4931 7.77203 26.8407 0.119629 17.4018 0.119629ZM27.6827 22.351C27.6827 25.2114 25.3562 27.5379 22.4958 27.5379H12.3078C9.44776 27.5379 7.12089 25.2114 7.12089 22.351V12.163C7.12089 9.30297 9.44776 6.9761 12.3078 6.9761H22.4958C25.3562 6.9761 27.6827 9.30297 27.6827 12.163V22.351Z" fill="#B8B8B8"/>
</svg>
