<svg width="36" height="35" viewBox="0 0 36 35" fill="none" xmlns="http://www.w3.org/2000/svg">
<path d="M17.944 0C8.3562 0 0.5821 7.77063 0.5821 17.3542C0.5821 24.4585 4.86057 30.5634 10.976 33.2518C10.9295 32.0432 10.9682 30.5867 11.2783 29.2696C11.6116 27.8596 13.5105 19.8101 13.5105 19.8101C13.5105 19.8101 12.9525 18.7022 12.9525 17.0675C12.9525 14.4954 14.4406 12.574 16.3008 12.574C17.882 12.574 18.6416 13.7594 18.6416 15.1771C18.6416 16.7653 17.6262 19.136 17.1069 21.3363C16.6729 23.1802 18.0293 24.6754 19.8507 24.6754C23.1371 24.6754 25.3538 20.4531 25.3538 15.4483C25.3538 11.6443 22.7883 8.80103 18.13 8.80103C12.8672 8.80103 9.58083 12.729 9.58083 17.114C9.58083 18.6247 10.0304 19.6939 10.728 20.5151C11.0457 20.8947 11.0922 21.0497 10.976 21.4835C10.8907 21.8012 10.7047 22.5681 10.6194 22.878C10.5032 23.3196 10.1466 23.4746 9.75135 23.3119C7.32534 22.3202 6.19371 19.6706 6.19371 16.6801C6.19371 11.7528 10.3559 5.84153 18.6028 5.84153C25.2298 5.84153 29.5935 10.6372 29.5935 15.7814C29.5935 22.5914 25.8034 27.6737 20.2227 27.6737C18.347 27.6737 16.5876 26.6588 15.983 25.5121C15.983 25.5121 14.9754 29.5098 14.7584 30.2845C14.3941 31.6248 13.6733 32.9574 13.0145 34.0033C14.5724 34.4604 16.2233 34.716 17.9362 34.716C27.524 34.716 35.2981 26.9454 35.2981 17.3619C35.3059 7.77063 27.5318 0 17.944 0Z" fill="#B8B8B8"/>
</svg>
