<svg width="36" height="35" viewBox="0 0 36 35" fill="none" xmlns="http://www.w3.org/2000/svg">
<path d="M17.8043 0C8.21542 0 0.446304 7.76912 0.446304 17.358C0.446304 26.9469 8.21542 34.716 17.8043 34.716C27.3932 34.716 35.1624 26.9469 35.1624 17.358C35.1624 7.76912 27.3932 0 17.8043 0ZM26.3294 11.8916L23.4807 25.3161C23.2707 26.268 22.7038 26.499 21.9129 26.051L17.5734 22.8524L15.4806 24.8682C15.2496 25.0991 15.0536 25.2951 14.6057 25.2951L14.9137 20.8786L22.9557 13.6135C23.3057 13.3055 22.8788 13.1305 22.4168 13.4385L12.4779 19.6958L8.19442 18.3589C7.26353 18.0649 7.24253 17.428 8.3904 16.9801L25.1255 10.5268C25.9024 10.2468 26.5813 10.7158 26.3294 11.8916Z" fill="#B8B8B8"/>
</svg>
