<svg width="35" height="35" viewBox="0 0 35 35" fill="none" xmlns="http://www.w3.org/2000/svg">
<path d="M17.2134 0.119629C7.72105 0.119629 0 7.84096 0 17.333C0 21.0973 1.21439 24.5888 3.27875 27.4226L1.133 33.8187L7.74847 31.7038C10.4703 33.5051 13.719 34.5473 17.2206 34.5473C26.7129 34.5473 34.434 26.8257 34.434 17.3339C34.434 7.8421 26.7126 0.120485 17.2206 0.120485H17.2106L17.2134 0.119629Z" fill="#B8B8B8"/>
<path d="M12.4068 8.86416C12.0839 8.06433 11.8202 8.03527 11.3142 8.00297L10.7372 7.98145C10.0806 7.98145 9.39161 8.17521 8.97609 8.59827C8.47015 9.11498 7.21497 10.3185 7.21497 12.7879C7.21497 15.2574 9.01592 17.645 9.26028 17.9798C9.51326 18.3027 12.7718 23.4548 17.8323 25.5496C21.7894 27.1891 22.9628 27.0373 23.8638 26.8446C25.1793 26.5615 26.8284 25.5894 27.2439 24.4161C27.6595 23.2427 27.6595 22.2416 27.5368 22.0263C27.414 21.811 27.0814 21.7033 26.5755 21.4396C26.0695 21.1759 23.6108 19.9723 23.1447 19.8098C22.6894 19.6376 22.2545 19.6989 21.91 20.1844C21.4256 20.8626 20.9487 21.5515 20.5644 21.9649C20.2608 22.2879 19.7646 22.3309 19.3501 22.1587C18.7936 21.9262 17.2348 21.3793 15.3133 19.6688C13.8256 18.3447 12.8137 16.6934 12.5199 16.1982C12.226 15.6923 12.4897 15.3984 12.7222 15.125C12.9752 14.8106 13.2174 14.5889 13.4715 14.2961C13.7255 14.0033 13.8665 13.8504 14.028 13.507C14.2002 13.1841 14.0786 12.8288 13.957 12.5759C13.8353 12.3229 12.8234 9.85237 12.409 8.85124L12.4068 8.86416Z" fill="#FEFEFE"/>
</svg>
