<svg width="62" height="62" viewBox="0 0 62 62" fill="none" xmlns="http://www.w3.org/2000/svg">
<g clip-path="url(#clip0_80_133)">
<path fill-rule="evenodd" clip-rule="evenodd" d="M32.2428 2.7904C30.0633 5.92441 28.7856 9.73263 28.7856 13.8393C28.7856 24.5398 37.4601 33.2143 48.1606 33.2143C52.2673 33.2143 56.0754 31.9367 59.2095 29.7573C59.2272 30.1694 59.2361 30.5837 59.2361 31.0001C59.2361 46.5948 46.5943 59.2366 30.9998 59.2366C26.5498 59.2366 22.3403 58.2074 18.5963 56.3735L2.76346 59.2366L7.49396 46.6506C4.50552 42.1711 2.76346 36.789 2.76346 31.0001C2.76346 15.4054 15.4053 2.76353 30.9998 2.76353C31.4163 2.76353 31.8307 2.77255 32.2428 2.7904Z" fill="#FF7972"/>
<path fill-rule="evenodd" clip-rule="evenodd" d="M34.3214 13.8393C34.3214 6.19606 40.5175 0 48.1606 0C55.8039 0 61.9999 6.19606 61.9999 13.8393C61.9999 21.4825 55.8039 27.6786 48.1606 27.6786C40.5175 27.6786 34.3214 21.4825 34.3214 13.8393ZM28.9997 5.60741C30.5238 5.48921 31.6635 4.15788 31.5453 2.63381C31.427 1.10975 30.0957 -0.0299195 28.5716 0.0882977C12.582 1.32856 -0.00435595 14.6925 -0.00435595 30.9989C-0.00435595 36.8348 1.61053 42.3006 4.41821 46.9659L0.172609 58.2614C-0.177879 59.1941 -0.000224701 60.2427 0.637782 61.008C1.27579 61.7733 2.27572 62.1364 3.25601 61.9588L18.218 59.2534C22.1183 61.0204 26.4478 62.0031 30.9998 62.0031C47.3059 62.0031 60.6696 49.4171 61.91 33.4277C62.0283 31.9036 60.8888 30.5723 59.3649 30.454C57.8406 30.3358 56.5094 31.4754 56.3911 32.9995C55.3726 46.1289 44.3919 56.4674 30.9998 56.4674C27.0807 56.4674 23.3753 55.5843 20.0653 54.0082C19.5059 53.665 18.8231 53.5184 18.1265 53.6446L18.1039 53.6486L7.07032 55.6437L10.0849 47.6231L10.0895 47.6111C10.4444 46.667 10.2496 45.6506 9.66485 44.9141C7.05092 40.9153 5.53135 36.1386 5.53135 30.9989C5.53135 17.6063 15.8702 6.62585 28.9997 5.60741Z" fill="#FAFAFA" fill-opacity="0.2"/>
</g>
<defs>
<clipPath id="clip0_80_133">
<rect width="62" height="62" fill="white"/>
</clipPath>
</defs>
</svg>
