<?xml version="1.0" encoding="utf-8"?>
<!-- Generator: Adobe Illustrator 24.3.0, SVG Export Plug-In . SVG Version: 6.00 Build 0)  -->
<svg version="1.1" id="Layer_1" xmlns="http://www.w3.org/2000/svg" xmlns:xlink="http://www.w3.org/1999/xlink" x="0px" y="0px"
	 viewBox="0 0 595.28 841.89" style="enable-background:new 0 0 595.28 841.89;" xml:space="preserve">
<style type="text/css">
	.st0{fill:none;stroke:#111517;stroke-width:10;stroke-linecap:round;stroke-linejoin:round;stroke-miterlimit:10;}
	.st1{enable-background:new    ;}
	.st2{clip-path:url(#SVGID_2_);}
	.st3{clip-path:url(#SVGID_4_);fill:#111517;}
</style>
<g>
	<polyline class="st0" points="463.72,429.36 463.72,475.86 309.99,550.21 309.81,550.21 156.07,475.86 156.07,429.36 	"/>
	<g>
		<g>
			<g class="st1">
				<defs>
					<polygon id="SVGID_1_" class="st1" points="62.39,486.79 94.53,286.27 557.63,294.35 525.49,494.87 					"/>
				</defs>
				<clipPath id="SVGID_2_">
					<use xlink:href="#SVGID_1_"  style="overflow:visible;"/>
				</clipPath>
				<g class="st2">
					<g>
						<g>
							<g>
								<g>
									<defs>
										<polyline id="SVGID_3_" points="86.82,487.21 89.37,318.42 533.2,293.93 530.65,462.72 86.82,487.21 										"/>
									</defs>
									<clipPath id="SVGID_4_">
										<use xlink:href="#SVGID_3_"  style="overflow:visible;"/>
									</clipPath>
									<path class="st3" d="M297,336.43l0.98-0.17c1.87-0.33,3.29-0.82,4.56-1.31c4.28-1.65,8.45-3.44,12.48-5.18
										c1.99-0.86,3.97-1.7,5.96-2.53l35.27-14.77c5.76,2.3,22.91,10.05,29.85,13.18c2.84,1.29,5.03,2.27,6.03,2.72l62.33,27.55
										c12.95,5.62,24.79,10.85,36.17,16l0.03,0.02c2.61,1.14,5.23,2.28,7.86,3.42c4.57,1.98,9.3,4.02,13.77,6.08l-3.3,1.39
										L308.9,466.46l-201.14-88.65l2.83-1.2c46.88-19.73,94.14-39.48,140.54-58.72c3.73,1.4,11.34,4.92,17.16,7.62
										c17.94,8.31,23.75,10.74,27.72,10.89L297,336.43 M298.6,327.84c-2.13-1.04-4.48-2.01-6.76-2.95
										c-1.32-0.55-2.56-1.06-3.76-1.59l-17.86-7.84c3.15-0.15,6.45-0.29,8.68-0.39c2.52-0.11,4.63-0.2,5.81-0.27
										c6.11-0.31,12.3-0.66,18.4-1c2.04-0.11,4.06-0.22,6.06-0.33c2.74-0.15,5.49-0.31,8.26-0.46c6.42-0.36,12.9-0.71,19.36-1.04
										c-10.2,4.32-26.67,11.11-34.34,14.27C301.02,326.85,299.72,327.38,298.6,327.84 M358.19,303.84
										c-0.95-0.02-1.86,0.03-2.61,0.07c-0.22,0.01-0.43,0.03-0.68,0.04c-6.88,0.32-13.84,0.67-20.76,1.06
										c-5.87,0.33-11.72,0.66-17.48,1c-5.91,0.34-11.97,0.69-17.99,1.02c-2.05,0.11-4.1,0.22-6.14,0.33
										c-7.14,0.35-14.15,0.72-20.91,1.1c-2.84,0.16-5.65,0.31-8.4,0.47l-0.19,0.01c-0.83,0.05-1.81,0.08-2.84,0.11
										c-1.3,0.05-2.66,0.09-4.03,0.17c-1.95,0.1-3.92,0.27-5.7,0.57l-0.09,0.02c-0.59,0.11-0.59,0.11-1.08,0.22l-0.55,0.13
										l-0.48,0.19c-5.84,2.25-11.51,4.67-16.99,7.01c-2.02,0.86-4.04,1.72-6.05,2.57l-38.03,15.96l-66.7,27.9
										c-3.78,1.58-7.58,3.15-11.39,4.72c-6.08,2.5-12.35,5.09-18.43,7.69l-0.85,0.36l-0.45,0.49c-0.29,0.31-0.75,0.8-0.91,1.37
										l-0.01,0.79c0.08,0.3,0.28,0.61,0.63,0.92c1.06,0.95,4.05,2.29,10.38,4.93c1.33,0.55,2.47,1.04,3.15,1.34l45.89,20.23
										l151.24,66.69c0.17,0.07,0.34,0.15,0.51,0.23c1.2,0.57,3.02,1.42,6.01,1.49l0.57,0.02l0.59-0.06
										c2.27-0.23,4.45-1.08,7.04-2.16c0.24-0.11,0.46-0.2,0.63-0.26c6.82-2.76,13.63-5.62,20.19-8.39
										c3.12-1.31,6.23-2.62,9.36-3.92l58.49-24.45l91.94-38.52c4.45-1.87,9.02-3.77,13.44-5.6c6.38-2.65,12.99-5.39,19.4-8.13
										l0.67-0.31c0.95-0.46,2.12-1.04,2.89-2.08l0.42-0.56l0-0.01l-0.22-0.55c-0.48-1.17-1.98-1.88-3.07-2.38l-0.17-0.07
										c-9.15-4.25-18.71-8.45-27.97-12.52c-3.46-1.52-6.91-3.03-10.36-4.56l-77.52-34.22l-37.59-16.57
										c-0.57-0.25-1.45-0.66-2.48-1.15c-5.79-2.7-8.75-4-10.87-4.41c-0.49-0.09-0.89-0.14-1.26-0.18
										C359.64,303.9,358.9,303.85,358.19,303.84"/>
								</g>
							</g>
						</g>
					</g>
				</g>
			</g>
		</g>
	</g>
</g>
</svg>
